<?xml version="1.0" encoding="UTF-8"?>
<svg xmlns="http://www.w3.org/2000/svg" xmlns:xlink="http://www.w3.org/1999/xlink" viewBox="0 0 25.463 8.696">
<defs>
<g>
<g id="glyph-0-0">
<path d="M 2.875 -7.484375 C 2.453125 -7.484375 2.015625 -7.3125 1.609375 -6.96875 C 0.875 -6.375 0.46875 -5.1875 0.46875 -3.671875 C 0.46875 -2.234375 0.828125 -1.109375 1.46875 -0.484375 C 1.890625 -0.09375 2.40625 0.140625 2.875 0.140625 C 3.296875 0.140625 3.734375 -0.03125 4.140625 -0.375 C 4.875 -0.96875 5.296875 -2.140625 5.296875 -3.609375 C 5.296875 -5.109375 4.9375 -6.21875 4.28125 -6.84375 C 3.859375 -7.25 3.359375 -7.484375 2.875 -7.484375 Z M 4.171875 -3.40625 C 4.140625 -2.15625 4.015625 -1.453125 3.703125 -0.875 C 3.5 -0.53125 3.15625 -0.28125 2.875 -0.28125 C 2.59375 -0.28125 2.25 -0.546875 2.0625 -0.875 C 1.75 -1.453125 1.609375 -2.15625 1.59375 -3.40625 Z M 1.59375 -4.015625 C 1.609375 -5.203125 1.75 -5.921875 2.0625 -6.484375 C 2.25 -6.8125 2.609375 -7.078125 2.875 -7.078125 C 3.15625 -7.078125 3.515625 -6.8125 3.703125 -6.484375 C 4 -5.921875 4.140625 -5.203125 4.171875 -4.015625 Z M 1.59375 -4.015625 "/>
</g>
<g id="glyph-1-0">
<path d="M 7.5 -3.5625 C 7.65625 -3.5625 7.859375 -3.5625 7.859375 -3.78125 C 7.859375 -4 7.65625 -4 7.5 -4 L 0.96875 -4 C 0.8125 -4 0.609375 -4 0.609375 -3.78125 C 0.609375 -3.5625 0.8125 -3.5625 0.984375 -3.5625 Z M 7.5 -1.453125 C 7.65625 -1.453125 7.859375 -1.453125 7.859375 -1.671875 C 7.859375 -1.890625 7.65625 -1.890625 7.5 -1.890625 L 0.984375 -1.890625 C 0.8125 -1.890625 0.609375 -1.890625 0.609375 -1.671875 C 0.609375 -1.453125 0.8125 -1.453125 0.96875 -1.453125 Z M 7.5 -1.453125 "/>
</g>
<g id="glyph-2-0">
<path d="M 2.765625 -7.375 C 2.171875 -7.375 1.71875 -7.1875 1.3125 -6.8125 C 0.671875 -6.1875 0.265625 -4.9375 0.265625 -3.671875 C 0.265625 -2.46875 0.625 -1.203125 1.140625 -0.59375 C 1.53125 -0.109375 2.09375 0.15625 2.71875 0.15625 C 3.28125 0.15625 3.75 -0.03125 4.140625 -0.421875 C 4.78125 -1.015625 5.1875 -2.28125 5.1875 -3.59375 C 5.1875 -5.828125 4.203125 -7.375 2.765625 -7.375 Z M 2.734375 -7.09375 C 3.65625 -7.09375 4.140625 -5.859375 4.140625 -3.578125 C 4.140625 -1.296875 3.671875 -0.125 2.71875 -0.125 C 1.78125 -0.125 1.3125 -1.296875 1.3125 -3.5625 C 1.3125 -5.875 1.796875 -7.09375 2.734375 -7.09375 Z M 2.734375 -7.09375 "/>
</g>
</g>
<clipPath id="clip-0">
<path clip-rule="nonzero" d="M 0 0 L 6 0 L 6 8.695312 L 0 8.695312 Z M 0 0 "/>
</clipPath>
<clipPath id="clip-1">
<path clip-rule="nonzero" d="M 19 0 L 25 0 L 25 8.695312 L 19 8.695312 Z M 19 0 "/>
</clipPath>
</defs>
<g clip-path="url(#clip-0)">
<g fill="rgb(0%, 0%, 0%)" fill-opacity="1">
<use xlink:href="#glyph-0-0" x="0.5" y="8.011"/>
</g>
</g>
<g fill="rgb(0%, 0%, 0%)" fill-opacity="1">
<use xlink:href="#glyph-1-0" x="8.605461" y="8.011"/>
</g>
<g clip-path="url(#clip-1)">
<g fill="rgb(0%, 0%, 0%)" fill-opacity="1">
<use xlink:href="#glyph-2-0" x="19.512379" y="8.011"/>
</g>
</g>
</svg>
